HIERARCHY
ROOT joint_Root
{
	OFFSET 0.0 0.0 0.0
	CHANNELS 6 Xposition Yposition Zposition Zrotation Xrotation Yrotation 
	JOINT Hips
	{
		OFFSET 4.5925 91.4895 -427.239
		CHANNELS 6 Xposition Yposition Zposition Zrotation Xrotation Yrotation 
		JOINT Spine
		{
			OFFSET 15.7357 0.0 0.0
			CHANNELS 6 Xposition Yposition Zposition Zrotation Xrotation Yrotation 
			JOINT Chest
			{
				OFFSET 8.98455 -0.406207 0.0
				CHANNELS 6 Xposition Yposition Zposition Zrotation Xrotation Yrotation 
				JOINT Neck
				{
					OFFSET 16.3773 0.0 0.0
					CHANNELS 6 Xposition Yposition Zposition Zrotation Xrotation Yrotation 
					JOINT Head
					{
						OFFSET 6.45672 0.0 0.0
						CHANNELS 6 Xposition Yposition Zposition Zrotation Xrotation Yrotation 
						End Site
						{
							OFFSET 0.0 0.0 0.0
						}
					}
				}
				JOINT Shoulder_L
				{
					OFFSET 12.9942 -0.242716 4.98039
					CHANNELS 6 Xposition Yposition Zposition Zrotation Xrotation Yrotation 
					JOINT UpperArm_L
					{
						OFFSET 5.34809 0.0 0.0
						CHANNELS 6 Xposition Yposition Zposition Zrotation Xrotation Yrotation 
						JOINT LowerArm_L
						{
							OFFSET 24.3286 1.87007e-05 0.0
							CHANNELS 6 Xposition Yposition Zposition Zrotation Xrotation Yrotation 
							JOINT Hand_L
							{
								OFFSET 22.2916 0.0 0.0
								CHANNELS 6 Xposition Yposition Zposition Zrotation Xrotation Yrotation 
								End Site
								{
									OFFSET 0.0 0.0 0.0
								}
							}
						}
					}
				}
				JOINT Shoulder_R
				{
					OFFSET 12.9945 -0.242716 -4.98039
					CHANNELS 6 Xposition Yposition Zposition Zrotation Xrotation Yrotation 
					JOINT UpperArm_R
					{
						OFFSET -5.34813 0.0 0.0
						CHANNELS 6 Xposition Yposition Zposition Zrotation Xrotation Yrotation 
						JOINT LowerArm_R
						{
							OFFSET -24.3289 0.000322201 0.0
							CHANNELS 6 Xposition Yposition Zposition Zrotation Xrotation Yrotation 
							JOINT Hand_R
							{
								OFFSET -22.2915 -0.000108084 0.0
								CHANNELS 6 Xposition Yposition Zposition Zrotation Xrotation Yrotation 
								End Site
								{
									OFFSET 0.0 0.0 0.0
								}
							}
						}
					}
				}
			}
		}
		JOINT UpperLeg_L
		{
			OFFSET -2.19248 -6.46944 0.0
			CHANNELS 6 Xposition Yposition Zposition Zrotation Xrotation Yrotation 
			JOINT LowerLeg_L
			{
				OFFSET 39.0811 0.0 -1.23785e-05
				CHANNELS 6 Xposition Yposition Zposition Zrotation Xrotation Yrotation 
				JOINT Foot_L
				{
					OFFSET 40.9854 0.0 -1.26872e-05
					CHANNELS 6 Xposition Yposition Zposition Zrotation Xrotation Yrotation 
					JOINT Toes_L
					{
						OFFSET 11.7543 0.0 0.0
						CHANNELS 6 Xposition Yposition Zposition Zrotation Xrotation Yrotation 
						End Site
						{
							OFFSET 0.0 0.0 0.0
						}
					}
				}
			}
		}
		JOINT UpperLeg_R
		{
			OFFSET -2.19251 6.46944 0.0
			CHANNELS 6 Xposition Yposition Zposition Zrotation Xrotation Yrotation 
			JOINT LowerLeg_R
			{
				OFFSET -39.0811 -0.00228153 -0.0401928
				CHANNELS 6 Xposition Yposition Zposition Zrotation Xrotation Yrotation 
				JOINT Foot_R
				{
					OFFSET -40.9854 0.0 0.0
					CHANNELS 6 Xposition Yposition Zposition Zrotation Xrotation Yrotation 
					JOINT Toes_R
					{
						OFFSET -11.7543 0.0 0.0
						CHANNELS 6 Xposition Yposition Zposition Zrotation Xrotation Yrotation 
						End Site
						{
							OFFSET 0.0 0.0 0.0
						}
					}
				}
			}
		}
	}
}
MOTION
Frames:	4
Frame Time:	0.0333333
0.000000 0.000000 0.000000 0.000000 0.000000 -0.000000 -1.729500 90.314300 2.862040 89.676400 -2.999170 11.456700 15.735700 0.000005 -0.000001 88.915400 81.268500 -89.644500 8.984550 -0.406207 -0.000000 9.692190 -0.340823 -1.428250 16.377300 -0.000001 -0.000001 3.386450 -2.983860 1.423630 6.456720 -0.000001 -0.000000 -9.111490 -1.869100 0.318197 12.994200 -0.242716 4.980390 -91.987600 7.333160 -74.789600 5.348090 -0.000007 -0.000001 -59.233500 41.449200 -18.231300 24.328600 0.000019 0.000005 8.187560 22.060100 -20.961200 22.291600 -0.000001 0.000005 10.864800 5.252340 1.371110 12.994500 -0.242716 -4.980390 88.636800 11.161600 -82.991900 -5.348130 -0.000001 -0.000004 -63.382800 29.509400 -11.926700 -24.328900 0.000322 -0.000009 0.992357 3.004820 -18.303500 -22.291500 -0.000108 -0.000004 14.495700 5.420420 -3.613290 -2.192480 -6.469440 -0.000000 -173.254000 -12.869900 4.047170 39.081100 -0.000007 -0.000012 -0.255537 0.425700 30.975800 40.985400 -0.000006 -0.000013 -0.420257 5.664090 -72.986700 11.754300 -0.000000 0.000003 -0.000238 -0.002145 -16.658100 -2.192510 6.469440 -0.000001 172.975000 20.752700 -175.317000 -39.081100 -0.002282 -0.040193 -0.247820 0.418474 30.967700 -40.985400 0.000008 0.000006 3.022900 11.534800 -73.386800 -11.754300 -0.000006 -0.000006 -0.001720 -0.025150 -17.595800
0.000000 0.000000 0.000000 0.000000 0.000000 -0.000000 -1.613060 90.325200 2.711410 89.636600 -2.998110 11.567600 15.735700 0.000005 -0.000001 89.134800 81.219100 -89.923600 8.984550 -0.406207 -0.000000 9.792430 -0.277510 -1.552650 16.377300 -0.000001 -0.000001 3.733480 -2.937700 1.194280 6.456720 -0.000001 -0.000000 -8.807830 -1.704650 -0.765586 12.994200 -0.242716 4.980390 -91.987700 7.318830 -74.760400 5.348090 -0.000007 -0.000001 -59.224800 41.436600 -18.269900 24.328600 0.000019 0.000005 8.111800 21.913700 -20.902000 22.291600 -0.000001 0.000005 10.851100 5.254010 1.326650 12.994500 -0.242716 -4.980390 88.576500 10.988500 -82.572000 -5.348130 -0.000001 -0.000004 -64.265800 26.111600 -11.405000 -24.328900 0.000322 -0.000009 0.915520 2.682960 -18.872200 -22.291500 -0.000108 -0.000004 14.781000 5.426850 -3.831060 -2.192480 -6.469440 -0.000000 -173.322000 -12.810200 3.998630 39.081100 -0.000007 -0.000012 -0.252316 0.418855 31.065000 40.985400 -0.000006 -0.000013 -0.352915 5.538400 -72.940900 11.754300 -0.000000 0.000003 -0.000234 -0.002114 -16.656900 -2.192510 6.469440 -0.000001 172.911000 20.773000 -175.307000 -39.081100 -0.002282 -0.040193 -0.252867 0.426692 30.979100 -40.985400 0.000008 0.000006 2.976420 11.605300 -73.268100 -11.754300 -0.000006 -0.000006 -0.001813 -0.026348 -17.644500
0.000000 0.000000 0.000000 0.000000 0.000000 -0.000000 -1.495640 90.343400 2.546590 89.594700 -2.979040 11.685400 15.735700 0.000005 -0.000001 89.156000 81.178700 -89.979000 8.984550 -0.406207 -0.000000 9.873320 -0.273377 -1.621150 16.377300 -0.000001 -0.000001 4.147600 -2.839960 0.942657 6.456720 -0.000001 -0.000000 -8.527230 -1.413100 -2.140210 12.994200 -0.242716 4.980390 -92.006400 7.343040 -74.672000 5.348090 -0.000007 -0.000001 -59.311800 41.329700 -18.143300 24.328600 0.000019 0.000005 8.115660 21.804400 -21.002200 22.291600 -0.000001 0.000005 10.803500 5.255710 1.281300 12.994500 -0.242716 -4.980390 88.502800 10.803300 -82.061800 -5.348130 -0.000001 -0.000004 -65.040800 21.427400 -10.950300 -24.328900 0.000322 -0.000009 0.530817 1.485890 -19.705200 -22.291500 -0.000108 -0.000004 15.717000 5.428850 -3.900110 -2.192480 -6.469440 -0.000000 -173.364000 -12.797700 3.949150 39.081100 -0.000007 -0.000012 -0.249143 0.412483 31.132700 40.985400 -0.000006 -0.000013 -0.249331 5.536400 -72.864100 11.754300 -0.000000 0.000003 -0.000255 -0.002271 -16.662600 -2.192510 6.469440 -0.000001 172.872000 20.812600 -175.325000 -39.081100 -0.002282 -0.040193 -0.246393 0.415841 30.983200 -40.985400 0.000008 0.000006 2.933990 11.658200 -73.111800 -11.754300 -0.000006 -0.000006 -0.001626 -0.023928 -17.546100
0.000000 0.000000 0.000000 0.000000 0.000000 -0.000000 -1.356240 90.359000 2.382900 89.576400 -2.976740 11.741500 15.735700 0.000005 -0.000001 89.192300 81.171900 -90.042000 8.984550 -0.406207 -0.000000 9.887160 -0.263052 -1.675360 16.377300 -0.000001 -0.000001 4.575230 -2.713650 0.650896 6.456720 -0.000001 -0.000000 -8.093880 -1.052690 -3.662020 12.994200 -0.242716 4.980390 -92.000400 7.290740 -74.611400 5.348090 -0.000007 -0.000001 -59.519600 41.267900 -17.953900 24.328600 0.000019 0.000005 8.163360 21.787700 -21.130400 22.291600 -0.000001 0.000005 10.739000 5.258330 1.211820 12.994500 -0.242716 -4.980390 88.430700 10.567300 -81.503500 -5.348130 -0.000001 -0.000004 -65.257000 16.478100 -10.693200 -24.328900 0.000322 -0.000009 0.148418 0.387953 -21.103900 -22.291500 -0.000108 -0.000004 16.539500 5.425210 -3.776750 -2.192480 -6.469440 -0.000000 -173.430000 -12.891700 3.857780 39.081100 -0.000007 -0.000012 -0.245460 0.405405 31.194000 40.985400 -0.000006 -0.000013 -0.121945 5.569680 -72.795900 11.754300 -0.000000 0.000003 -0.000239 -0.002151 -16.658300 -2.192510 6.469440 -0.000001 172.847000 20.721300 -175.415000 -39.081100 -0.002282 -0.040193 -0.245364 0.413890 30.997600 -40.985400 0.000008 0.000006 2.847630 11.635800 -72.965900 -11.754300 -0.000006 -0.000006 -0.001760 -0.025673 -17.617000
